<svg width="64" height="64" viewBox="0 0 64 64" fill="none" xmlns="http://www.w3.org/2000/svg">
<circle cx="32.0039" cy="32" r="30" fill="url(#paint0_linear_880_2297)"/>
<g filter="url(#filter0_di_880_2297)">
<path d="M32.6475 7.21875C34.8084 7.21875 36.5605 8.97092 36.5605 11.1318C36.5605 12.579 35.7744 13.8416 34.6064 14.5186V16.625C36.2626 17.0399 37.5674 17.8925 38.1641 18.957H39.8174C45.6502 18.957 50.6702 22.4378 52.9131 27.4355C55.0529 27.4661 56.7801 29.6433 56.7803 32.3252C56.7803 34.6911 55.4361 36.6648 53.6504 37.1182C52.4454 41.4965 49.218 45.037 45.0352 46.6709V46.6719L27.4277 53.5186V47.6504H24.8184C18.2144 47.6501 12.6534 43.1872 10.9844 37.1133C9.20687 36.652 7.87109 34.6839 7.87109 32.3252C7.87127 29.6497 9.58994 27.4772 11.7227 27.4365C13.9653 22.4384 18.9854 18.9573 24.8184 18.957H26.4824C27.1555 17.756 28.7303 16.8246 30.6934 16.4873V14.5205C29.5233 13.8441 28.7354 12.5805 28.7354 11.1318C28.7354 8.97107 30.4867 7.21899 32.6475 7.21875Z" fill="white"/>
</g>
<g filter="url(#filter1_i_880_2297)">
<rect x="18.9648" y="25.4805" width="26.7369" height="15.6509" rx="7.82543" fill="url(#paint1_linear_880_2297)"/>
</g>
<rect x="27.4414" y="30.043" width="2.60848" height="6.5212" rx="1.30424" fill="white"/>
<path d="M37.2259 31.3477L35.2695 33.304L37.2259 35.2604" stroke="white" stroke-width="2.56" stroke-linecap="round" stroke-linejoin="round"/>
<defs>
<filter id="filter0_di_880_2297" x="4.67109" y="6.57875" width="55.3102" height="52.7008" filterUnits="userSpaceOnUse" color-interpolation-filters="sRGB">
<feFlood flood-opacity="0" result="BackgroundImageFix"/>
<feColorMatrix in="SourceAlpha" type="matrix" values="0 0 0 0 0 0 0 0 0 0 0 0 0 0 0 0 0 0 127 0" result="hardAlpha"/>
<feOffset dy="2.56"/>
<feGaussianBlur stdDeviation="1.6"/>
<feComposite in2="hardAlpha" operator="out"/>
<feColorMatrix type="matrix" values="0 0 0 0 0.133333 0 0 0 0 0.572549 0 0 0 0 0.996078 0 0 0 0.26 0"/>
<feBlend mode="normal" in2="BackgroundImageFix" result="effect1_dropShadow_880_2297"/>
<feBlend mode="normal" in="SourceGraphic" in2="effect1_dropShadow_880_2297" result="shape"/>
<feColorMatrix in="SourceAlpha" type="matrix" values="0 0 0 0 0 0 0 0 0 0 0 0 0 0 0 0 0 0 127 0" result="hardAlpha"/>
<feOffset dy="0.64"/>
<feGaussianBlur stdDeviation="1.28"/>
<feComposite in2="hardAlpha" operator="arithmetic" k2="-1" k3="1"/>
<feColorMatrix type="matrix" values="0 0 0 0 0.151799 0 0 0 0 0.70313 0 0 0 0 1 0 0 0 1 0"/>
<feBlend mode="normal" in2="shape" result="effect2_innerShadow_880_2297"/>
</filter>
<filter id="filter1_i_880_2297" x="18.9648" y="25.4805" width="26.7383" height="18.2123" filterUnits="userSpaceOnUse" color-interpolation-filters="sRGB">
<feFlood flood-opacity="0" result="BackgroundImageFix"/>
<feBlend mode="normal" in="SourceGraphic" in2="BackgroundImageFix" result="shape"/>
<feColorMatrix in="SourceAlpha" type="matrix" values="0 0 0 0 0 0 0 0 0 0 0 0 0 0 0 0 0 0 127 0" result="hardAlpha"/>
<feOffset dy="2.56"/>
<feGaussianBlur stdDeviation="1.28"/>
<feComposite in2="hardAlpha" operator="arithmetic" k2="-1" k3="1"/>
<feColorMatrix type="matrix" values="0 0 0 0 0.0741525 0 0 0 0 0.455172 0 0 0 0 0.9886 0 0 0 1 0"/>
<feBlend mode="normal" in2="shape" result="effect1_innerShadow_880_2297"/>
</filter>
<linearGradient id="paint0_linear_880_2297" x1="32.5566" y1="-0.608695" x2="32.5566" y2="62.9783" gradientUnits="userSpaceOnUse">
<stop stop-color="#1F64FF"/>
<stop offset="1" stop-color="#29EEFC"/>
</linearGradient>
<linearGradient id="paint1_linear_880_2297" x1="32.5796" y1="24.8" x2="32.5796" y2="41.3865" gradientUnits="userSpaceOnUse">
<stop stop-color="#1F64FF"/>
<stop offset="1" stop-color="#29EEFC"/>
</linearGradient>
</defs>
</svg>
